<?xml version="1.0" encoding="UTF-8"?>
<svg id="Layer_1" data-name="Layer 1" xmlns="http://www.w3.org/2000/svg" xmlns:xlink="http://www.w3.org/1999/xlink" viewBox="0 0 1184.6 206.17">
  <defs>
    <style>
      .cls-1 {
        fill: url(#linear-gradient);
      }
    </style>
    <linearGradient id="linear-gradient" x1="0" y1="103.08" x2="1184.6" y2="103.08" gradientUnits="userSpaceOnUse">
      <stop offset="0" stop-color="#02577a"/>
      <stop offset=".08" stop-color="#014d6c"/>
      <stop offset=".24" stop-color="#014058"/>
      <stop offset=".42" stop-color="#013749"/>
      <stop offset=".64" stop-color="#013141"/>
      <stop offset="1" stop-color="#01303f"/>
    </linearGradient>
  </defs>
  <path class="cls-1" d="m211.61,2.86l-87.33,200.44h-36.65L0,2.86h40.38l66.72,154.62L174.38,2.86h37.22Zm100.51,189.99c-16.42-8.88-29.31-21.19-38.66-36.94-9.35-15.75-14.03-33.36-14.03-52.83s4.68-37.08,14.03-52.83c9.35-15.75,22.23-28.06,38.66-36.94,16.41-8.88,34.83-13.31,55.26-13.31s38.84,4.44,55.26,13.31c16.42,8.88,29.3,21.14,38.66,36.8,9.35,15.65,14.03,33.31,14.03,52.97s-4.68,37.32-14.03,52.98c-9.35,15.66-22.24,27.92-38.66,36.79-16.42,8.87-34.84,13.31-55.26,13.31s-38.85-4.44-55.26-13.31Zm91.34-28.35c10.69-6.01,19.09-14.41,25.2-25.2,6.11-10.78,9.16-22.86,9.16-36.22s-3.05-25.43-9.16-36.22c-6.11-10.78-14.51-19.19-25.2-25.2-10.69-6.01-22.72-9.02-36.08-9.02s-25.39,3.01-36.08,9.02c-10.69,6.01-19.09,14.41-25.2,25.2-6.11,10.78-9.16,22.86-9.16,36.22s3.05,25.44,9.16,36.22c6.11,10.79,14.5,19.19,25.2,25.2,10.69,6.01,22.72,9.02,36.08,9.02s25.38-3,36.08-9.02ZM557.79,2.86h37.23v168.94h104.8v31.5h-142.02V2.86Zm214.47,0h37.23v168.94h104.8v31.5h-142.03V2.86Zm249.12,189.99c-16.42-8.88-29.31-21.19-38.66-36.94-9.35-15.75-14.03-33.36-14.03-52.83s4.68-37.08,14.03-52.83c9.35-15.75,22.23-28.06,38.66-36.94,16.41-8.88,34.83-13.31,55.26-13.31s38.84,4.44,55.26,13.31c16.42,8.88,29.3,21.14,38.66,36.8,9.35,15.65,14.03,33.31,14.03,52.97s-4.68,37.32-14.03,52.98c-9.35,15.66-22.24,27.92-38.66,36.79-16.42,8.87-34.84,13.31-55.26,13.31s-38.85-4.44-55.26-13.31Zm91.34-28.35c10.69-6.01,19.09-14.41,25.2-25.2,6.11-10.78,9.16-22.86,9.16-36.22s-3.05-25.43-9.16-36.22c-6.11-10.78-14.51-19.19-25.2-25.2-10.69-6.01-22.72-9.02-36.08-9.02s-25.39,3.01-36.08,9.02c-10.7,6.01-19.09,14.41-25.2,25.2-6.11,10.78-9.16,22.86-9.16,36.22s3.05,25.44,9.16,36.22c6.11,10.79,14.5,19.19,25.2,25.2,10.69,6.01,22.71,9.02,36.08,9.02s25.39-3,36.08-9.02Z"/>
</svg>